<svg width="80" height="115" viewBox="0 0 80 115" fill="none" xmlns="http://www.w3.org/2000/svg">
<path opacity="0.9" d="M43.5898 114.286H35.738L22.769 79.8243L52.3075 73.366L43.5898 114.286Z" fill="#FF6D3E"/>
<path opacity="0.8" d="M15.6356 79.51L28.7179 114.286H13.3781C5.99056 114.286 0 108.267 0 100.854V69.0261L15.6356 79.51Z" fill="#6D58EF"/>
<path opacity="0.8" d="M24.6152 72.5393L42.6754 38.6462L52.3075 66.487L24.6152 72.5393Z" fill="#2C9CFF"/>
<path opacity="0.8" d="M58.9783 74.1926L79.9999 86.6668V100.859C80.0008 104.424 78.5962 107.842 76.0958 110.361C73.5954 112.879 70.2046 114.291 66.6709 114.286H50.4614L58.9783 74.1943V74.1926Z" fill="#20F2AE"/>
<path d="M0 60.8423V47.8057L36.5128 35.9597L17.1375 72.3327L0 60.8406V60.8423Z" fill="#FFD950"/>
<path opacity="0.8" d="M1.06984e-07 40.9197V13.4658C-0.000447768 9.89051 1.40535 6.46186 3.90744 3.93581C6.40952 1.40976 9.80242 -0.00624312 13.338 2.06933e-05H28.5155L38.9744 28.2054L1.06984e-07 40.9197Z" fill="#FF3788"/>
<path opacity="0.8" d="M35.6924 0H66.6731C74.0267 0 80.0001 6.04054 80.0001 13.4695V16.4013L45.4166 26.2464L35.6924 0Z" fill="#6919DE"/>
<path opacity="0.9" d="M80.0001 23.353V78.9459L59.3772 66.7146L47.5898 32.5442L80.0001 23.353Z" fill="#FD5655"/>
</svg>
